<svg id="Layer_1" data-name="Layer 1" xmlns="http://www.w3.org/2000/svg" viewBox="0 0 206.28 225.48"><defs><style>.cls-1,.cls-2{fill:#21ce99;}.cls-1{stroke:#000;stroke-miterlimit:10;}</style></defs><title>icon</title><path class="cls-1" d="M307.5,236.5c68.92-1.94-88.23,102.35-159,92a36.82,36.82,0,0,1-5-1c-.17-.05-5-1-5-1" transform="translate(-136.22 -104.5)"/><path class="cls-1" d="M278.5,217.5c-.8-7.4.16-15.53-.35-23a11.78,11.78,0,0,1,.64-4.95q5.52-15.36,11.81-29.89c.88-2,1.73-4.09,2.58-6.16a7,7,0,0,1,4.25-4c2-.89,4-1.32,6-2.18A66,66,0,0,1,316,143.21c.36-.08.72-.19,1-.26.46,0,.9-.18,1.12.39.3.75-.13,1.28-.36,1.81-2.14,5-4.27,10-6.43,15-3.81,8.77-7.29,17.9-10.6,27.21-3.74,10.49-9,21.2-12.2,32.18" transform="translate(-136.22 -104.5)"/><path class="cls-1" d="M341.92,134.57c0,2.51,0,5,0,7.51.07,5.78-2.45,9.35-4.24,13.48-3.58,8.27-7.16,16.54-10.35,25.24-.28.76-.51,2-1.2,1.71s-.48-1.59-.52-2.5c-.66-13.34-.84-26.72-.9-40.1,0-3.54-.67-4.56-2.77-4-5.76,1.57-11.52,3.17-17.26,4.92-1.58.48-3.07,1.65-4.68,2-.36.08-.78.33-1-.25a2.19,2.19,0,0,1,.24-1.88c3-6,5.94-12,9-17.9,2-3.86,4.15-7.5,6.21-11.27a4.62,4.62,0,0,1,1.37-1.68c5.61-3.65,11.33-5.92,17.43-4.39,4,1,6.37,4.68,7.47,10.91A83.26,83.26,0,0,1,341.92,134.57Z" transform="translate(-136.22 -104.5)"/><path class="cls-1" d="M294.5,222.5c3.58-14.1,1.25-9.07,5.76-22.4,4.2-12.42,8.62-24.62,13.7-36.15,2.08-4.73,4.12-9.53,6.18-14.29.27-.62.5-1.5,1.07-1.18s.39,1.14.41,1.81q.47,14.86.95,29.73c.12,3.71.34,7.4.54,11.72-.21,2.22-1.32,4.4-2.09,6.81-3,9.32-5.95,18.61-8.63,28.16a4.2,4.2,0,0,1-1.57,2.71c-2,1.06-3.36,1.92-5.32,3.08" transform="translate(-136.22 -104.5)"/><path class="cls-1" d="M232.5,310.5s-32.88,13.38-60,18a80.49,80.49,0,0,1-34-2L138,326l-.18-.2c-6.92-10.59,20.54-31.26,27.67-31.26" transform="translate(-136.22 -104.5)"/><path class="cls-2" d="M310.58,241.22a2.77,2.77,0,0,1,0,.41" transform="translate(-136.22 -104.5)"/><path d="M310.2,241.22a2.81,2.81,0,0,1,0,.41c0,.48.72.48.75,0a2.81,2.81,0,0,0,0-.41.38.38,0,0,0-.75,0Z" transform="translate(-136.22 -104.5)"/><path class="cls-2" d="M305.33,232.49" transform="translate(-136.22 -104.5)"/><path d="M305.33,232.87a.38.38,0,0,0,0-.75.38.38,0,0,0,0,.75Z" transform="translate(-136.22 -104.5)"/><path class="cls-2" d="M165.73,294.34" transform="translate(-136.22 -104.5)"/><path d="M165.73,294.72a.38.38,0,0,0,0-.75.38.38,0,0,0,0,.75Z" transform="translate(-136.22 -104.5)"/><path class="cls-1" d="M310.5,241.5c-29.18-56.3-98-10-165.47,79.15" transform="translate(-136.22 -104.5)"/><path class="cls-1" d="M310.5,241.5c-18,44-115,74-155.09,78" transform="translate(-136.22 -104.5)"/></svg>