<svg xmlns="http://www.w3.org/2000/svg" viewBox="0 0 169.18 193.12"><defs><style>.cls-1{fill:#21ce99;stroke:#21ce99;stroke-miterlimit:10}</style></defs><g id="Layer_2" data-name="Layer 2"><g id="Layer_1-2" data-name="Layer 1"><path class="cls-1" d="M128 91.91c-30.49-27.08-76.63 18.26-117.76 93.65 31.86-7.82 115.67-46.08 125.35-84.91a47.74 47.74 0 00-7.59-8.74z"/><path class="cls-1" d="M134.8 94.82c16.3 10.41-13.58 64.73-128.67 94.68 1.53-7 9.7-20 9.7-20 5.7-6.76-16.62 11.7-15.27 21.69 29.15 13.67 185.61-71.4 134.24-96.33m-4.14-25.17c.71-3.88-1.1-7-3-10.15-1.26-2.12-2.32-4.36-3.48-6.54a2.16 2.16 0 010-1.69c1.47-5 3.06-10 5-14.84a56 56 0 012.1-5.29 3.31 3.31 0 011.34-1.41q7.78-4.65 15.93-8.63c.35-.17.76-.55 1.1-.27s0 .82-.16 1.2A192.74 192.74 0 00137 64.46c-.09.53-.14 1.06-.21 1.59a13.18 13.18 0 01-.1 4.85c-.45 2.93-.75 5.88-1.06 8.82-.06.58-.06 1.18-.69 1.48-.43 2.54-.39 5.12-.61 7.68a2 2 0 01-2.23 1.86c-.67-.09-.52-.6-.54-1-.24-5.58-.47-11.15-.72-16.73a16.67 16.67 0 00-.18-3.32z"/><path class="cls-1" d="M167.72 10.58a12.09 12.09 0 01-.66 10.7 76.78 76.78 0 00-3.12 8.19c-.61 1.79-1.21 3.59-1.84 5.37-.11.32-.16.78-.62.75s-.38-.45-.5-.72A170.36 170.36 0 01155 18.49c-.81-2.55-1.4-2.78-3.87-1.63-5.4 2.51-10.7 5.21-15.88 8.15a1.87 1.87 0 01-1.55.44 153.23 153.23 0 017.26-15c3.4-5.89 9.15-8.1 15.26-9.64 3.9-1 6.35.13 8.51 3.51a28.7 28.7 0 012.99 6.26zM138.22 81a4.9 4.9 0 00.14-1.06c-.24-2.87 1.09-4.82 3.37-6.45 2.77-2 5.39-4.21 8.08-6.32l.47-.15c.06 2.1-.11 4-1.9 5.61a109.11 109.11 0 00-8.51 8.15l-.78.69c-.76.69-.81.1-.87-.47z"/><path class="cls-1" d="M143.35 69a26.57 26.57 0 00-2.92 2.24c-.4.3-.74 1-1.29.68s-.1-.9 0-1.36c.17-1.35.37-2.7.56-4a199.35 199.35 0 017.05-28.6c1.62-4.85 3.39-9.65 5.39-14.36.19-.45.21-1.23.85-1.2s.52.76.68 1.2q2.7 7.38 5.79 14.61a6.64 6.64 0 01.49 4.51c-1.38 5.19-2.51 10.44-3.49 15.73a2.42 2.42 0 01-1.17 1.68c-3.84 2.48-7.39 5.36-11.05 8.08a7.49 7.49 0 00-.89.79z"/></g></g></svg>